<?xml version="1.0" encoding="utf-8" standalone="no"?>
<!DOCTYPE svg PUBLIC "-//W3C//DTD SVG 1.1//EN"
  "http://www.w3.org/Graphics/SVG/1.1/DTD/svg11.dtd">
<!-- Created with matplotlib (http://matplotlib.org/) -->
<svg height="345pt" version="1.1" viewBox="0 0 460 345" width="460pt" xmlns="http://www.w3.org/2000/svg" xmlns:xlink="http://www.w3.org/1999/xlink">
 <defs>
  <style type="text/css">
*{stroke-linecap:butt;stroke-linejoin:round;}
  </style>
 </defs>
 <g id="figure_1">
  <g id="patch_1">
   <path d="M 0 345.6 
L 460.8 345.6 
L 460.8 0 
L 0 0 
z
" style="fill:#ffffff;"/>
  </g>
  <g id="axes_1">
   <g id="patch_2">
    <path d="M 252.392727 307.584 
L 414.72 307.584 
L 414.72 41.472 
L 252.392727 41.472 
z
" style="fill:#ffffff;"/>
   </g>
   <g id="matplotlib.axis_1">
    <g id="xtick_1">
     <g id="line2d_1">
      <defs>
       <path d="M 0 0 
L 0 3.5 
" id="m17f0c7cf55" style="stroke:#000000;stroke-width:0.8;"/>
      </defs>
      <g>
       <use style="stroke:#000000;stroke-width:0.8;" x="259.77124" xlink:href="#m17f0c7cf55" y="307.584"/>
      </g>
     </g>
     <g id="text_1">
      <!-- 0.00 -->
      <defs>
       <path d="M 31.78125 66.40625 
Q 24.171875 66.40625 20.328125 58.90625 
Q 16.5 51.421875 16.5 36.375 
Q 16.5 21.390625 20.328125 13.890625 
Q 24.171875 6.390625 31.78125 6.390625 
Q 39.453125 6.390625 43.28125 13.890625 
Q 47.125 21.390625 47.125 36.375 
Q 47.125 51.421875 43.28125 58.90625 
Q 39.453125 66.40625 31.78125 66.40625 
z
M 31.78125 74.21875 
Q 44.046875 74.21875 50.515625 64.515625 
Q 56.984375 54.828125 56.984375 36.375 
Q 56.984375 17.96875 50.515625 8.265625 
Q 44.046875 -1.421875 31.78125 -1.421875 
Q 19.53125 -1.421875 13.0625 8.265625 
Q 6.59375 17.96875 6.59375 36.375 
Q 6.59375 54.828125 13.0625 64.515625 
Q 19.53125 74.21875 31.78125 74.21875 
z
" id="DejaVuSans-30"/>
       <path d="M 10.6875 12.40625 
L 21 12.40625 
L 21 0 
L 10.6875 0 
z
" id="DejaVuSans-2e"/>
      </defs>
      <g transform="translate(248.638427 322.182437)scale(0.1 -0.1)">
       <use xlink:href="#DejaVuSans-30"/>
       <use x="63.623047" xlink:href="#DejaVuSans-2e"/>
       <use x="95.410156" xlink:href="#DejaVuSans-30"/>
       <use x="159.033203" xlink:href="#DejaVuSans-30"/>
      </g>
     </g>
    </g>
    <g id="xtick_2">
     <g id="line2d_2">
      <g>
       <use style="stroke:#000000;stroke-width:0.8;" x="296.663802" xlink:href="#m17f0c7cf55" y="307.584"/>
      </g>
     </g>
     <g id="text_2">
      <!-- 0.25 -->
      <defs>
       <path d="M 19.1875 8.296875 
L 53.609375 8.296875 
L 53.609375 0 
L 7.328125 0 
L 7.328125 8.296875 
Q 12.9375 14.109375 22.625 23.890625 
Q 32.328125 33.6875 34.8125 36.53125 
Q 39.546875 41.84375 41.421875 45.53125 
Q 43.3125 49.21875 43.3125 52.78125 
Q 43.3125 58.59375 39.234375 62.25 
Q 35.15625 65.921875 28.609375 65.921875 
Q 23.96875 65.921875 18.8125 64.3125 
Q 13.671875 62.703125 7.8125 59.421875 
L 7.8125 69.390625 
Q 13.765625 71.78125 18.9375 73 
Q 24.125 74.21875 28.421875 74.21875 
Q 39.75 74.21875 46.484375 68.546875 
Q 53.21875 62.890625 53.21875 53.421875 
Q 53.21875 48.921875 51.53125 44.890625 
Q 49.859375 40.875 45.40625 35.40625 
Q 44.1875 33.984375 37.640625 27.21875 
Q 31.109375 20.453125 19.1875 8.296875 
z
" id="DejaVuSans-32"/>
       <path d="M 10.796875 72.90625 
L 49.515625 72.90625 
L 49.515625 64.59375 
L 19.828125 64.59375 
L 19.828125 46.734375 
Q 21.96875 47.46875 24.109375 47.828125 
Q 26.265625 48.1875 28.421875 48.1875 
Q 40.625 48.1875 47.75 41.5 
Q 54.890625 34.8125 54.890625 23.390625 
Q 54.890625 11.625 47.5625 5.09375 
Q 40.234375 -1.421875 26.90625 -1.421875 
Q 22.3125 -1.421875 17.546875 -0.640625 
Q 12.796875 0.140625 7.71875 1.703125 
L 7.71875 11.625 
Q 12.109375 9.234375 16.796875 8.0625 
Q 21.484375 6.890625 26.703125 6.890625 
Q 35.15625 6.890625 40.078125 11.328125 
Q 45.015625 15.765625 45.015625 23.390625 
Q 45.015625 31 40.078125 35.4375 
Q 35.15625 39.890625 26.703125 39.890625 
Q 22.75 39.890625 18.8125 39.015625 
Q 14.890625 38.140625 10.796875 36.28125 
z
" id="DejaVuSans-35"/>
      </defs>
      <g transform="translate(285.530989 322.182437)scale(0.1 -0.1)">
       <use xlink:href="#DejaVuSans-30"/>
       <use x="63.623047" xlink:href="#DejaVuSans-2e"/>
       <use x="95.410156" xlink:href="#DejaVuSans-32"/>
       <use x="159.033203" xlink:href="#DejaVuSans-35"/>
      </g>
     </g>
    </g>
    <g id="xtick_3">
     <g id="line2d_3">
      <g>
       <use style="stroke:#000000;stroke-width:0.8;" x="333.556364" xlink:href="#m17f0c7cf55" y="307.584"/>
      </g>
     </g>
     <g id="text_3">
      <!-- 0.50 -->
      <g transform="translate(322.423551 322.182437)scale(0.1 -0.1)">
       <use xlink:href="#DejaVuSans-30"/>
       <use x="63.623047" xlink:href="#DejaVuSans-2e"/>
       <use x="95.410156" xlink:href="#DejaVuSans-35"/>
       <use x="159.033203" xlink:href="#DejaVuSans-30"/>
      </g>
     </g>
    </g>
    <g id="xtick_4">
     <g id="line2d_4">
      <g>
       <use style="stroke:#000000;stroke-width:0.8;" x="370.448926" xlink:href="#m17f0c7cf55" y="307.584"/>
      </g>
     </g>
     <g id="text_4">
      <!-- 0.75 -->
      <defs>
       <path d="M 8.203125 72.90625 
L 55.078125 72.90625 
L 55.078125 68.703125 
L 28.609375 0 
L 18.3125 0 
L 43.21875 64.59375 
L 8.203125 64.59375 
z
" id="DejaVuSans-37"/>
      </defs>
      <g transform="translate(359.316113 322.182437)scale(0.1 -0.1)">
       <use xlink:href="#DejaVuSans-30"/>
       <use x="63.623047" xlink:href="#DejaVuSans-2e"/>
       <use x="95.410156" xlink:href="#DejaVuSans-37"/>
       <use x="159.033203" xlink:href="#DejaVuSans-35"/>
      </g>
     </g>
    </g>
    <g id="xtick_5">
     <g id="line2d_5">
      <g>
       <use style="stroke:#000000;stroke-width:0.8;" x="407.341488" xlink:href="#m17f0c7cf55" y="307.584"/>
      </g>
     </g>
     <g id="text_5">
      <!-- 1.00 -->
      <defs>
       <path d="M 12.40625 8.296875 
L 28.515625 8.296875 
L 28.515625 63.921875 
L 10.984375 60.40625 
L 10.984375 69.390625 
L 28.421875 72.90625 
L 38.28125 72.90625 
L 38.28125 8.296875 
L 54.390625 8.296875 
L 54.390625 0 
L 12.40625 0 
z
" id="DejaVuSans-31"/>
      </defs>
      <g transform="translate(396.208675 322.182437)scale(0.1 -0.1)">
       <use xlink:href="#DejaVuSans-31"/>
       <use x="63.623047" xlink:href="#DejaVuSans-2e"/>
       <use x="95.410156" xlink:href="#DejaVuSans-30"/>
       <use x="159.033203" xlink:href="#DejaVuSans-30"/>
      </g>
     </g>
    </g>
    <g id="text_6">
     <!-- t -->
     <defs>
      <path d="M 18.3125 70.21875 
L 18.3125 54.6875 
L 36.8125 54.6875 
L 36.8125 47.703125 
L 18.3125 47.703125 
L 18.3125 18.015625 
Q 18.3125 11.328125 20.140625 9.421875 
Q 21.96875 7.515625 27.59375 7.515625 
L 36.8125 7.515625 
L 36.8125 0 
L 27.59375 0 
Q 17.1875 0 13.234375 3.875 
Q 9.28125 7.765625 9.28125 18.015625 
L 9.28125 47.703125 
L 2.6875 47.703125 
L 2.6875 54.6875 
L 9.28125 54.6875 
L 9.28125 70.21875 
z
" id="DejaVuSans-74"/>
     </defs>
     <g transform="translate(331.596207 335.860562)scale(0.1 -0.1)">
      <use xlink:href="#DejaVuSans-74"/>
     </g>
    </g>
   </g>
   <g id="matplotlib.axis_2">
    <g id="ytick_1">
     <g id="line2d_6">
      <defs>
       <path d="M 0 0 
L -3.5 0 
" id="mfed6d79fc1" style="stroke:#000000;stroke-width:0.8;"/>
      </defs>
      <g>
       <use style="stroke:#000000;stroke-width:0.8;" x="252.392727" xlink:href="#mfed6d79fc1" y="299.164338"/>
      </g>
     </g>
     <g id="text_7">
      <!-- −15 -->
      <defs>
       <path d="M 10.59375 35.5 
L 73.1875 35.5 
L 73.1875 27.203125 
L 10.59375 27.203125 
z
" id="DejaVuSans-2212"/>
      </defs>
      <g transform="translate(224.28804 302.963557)scale(0.1 -0.1)">
       <use xlink:href="#DejaVuSans-2212"/>
       <use x="83.789062" xlink:href="#DejaVuSans-31"/>
       <use x="147.412109" xlink:href="#DejaVuSans-35"/>
      </g>
     </g>
    </g>
    <g id="ytick_2">
     <g id="line2d_7">
      <g>
       <use style="stroke:#000000;stroke-width:0.8;" x="252.392727" xlink:href="#mfed6d79fc1" y="248.38683"/>
      </g>
     </g>
     <g id="text_8">
      <!-- −10 -->
      <g transform="translate(224.28804 252.186049)scale(0.1 -0.1)">
       <use xlink:href="#DejaVuSans-2212"/>
       <use x="83.789062" xlink:href="#DejaVuSans-31"/>
       <use x="147.412109" xlink:href="#DejaVuSans-30"/>
      </g>
     </g>
    </g>
    <g id="ytick_3">
     <g id="line2d_8">
      <g>
       <use style="stroke:#000000;stroke-width:0.8;" x="252.392727" xlink:href="#mfed6d79fc1" y="197.609322"/>
      </g>
     </g>
     <g id="text_9">
      <!-- −5 -->
      <g transform="translate(230.65054 201.40854)scale(0.1 -0.1)">
       <use xlink:href="#DejaVuSans-2212"/>
       <use x="83.789062" xlink:href="#DejaVuSans-35"/>
      </g>
     </g>
    </g>
    <g id="ytick_4">
     <g id="line2d_9">
      <g>
       <use style="stroke:#000000;stroke-width:0.8;" x="252.392727" xlink:href="#mfed6d79fc1" y="146.831814"/>
      </g>
     </g>
     <g id="text_10">
      <!-- 0 -->
      <g transform="translate(239.030227 150.631032)scale(0.1 -0.1)">
       <use xlink:href="#DejaVuSans-30"/>
      </g>
     </g>
    </g>
    <g id="ytick_5">
     <g id="line2d_10">
      <g>
       <use style="stroke:#000000;stroke-width:0.8;" x="252.392727" xlink:href="#mfed6d79fc1" y="96.054305"/>
      </g>
     </g>
     <g id="text_11">
      <!-- 5 -->
      <g transform="translate(239.030227 99.853524)scale(0.1 -0.1)">
       <use xlink:href="#DejaVuSans-35"/>
      </g>
     </g>
    </g>
    <g id="ytick_6">
     <g id="line2d_11">
      <g>
       <use style="stroke:#000000;stroke-width:0.8;" x="252.392727" xlink:href="#mfed6d79fc1" y="45.276797"/>
      </g>
     </g>
     <g id="text_12">
      <!-- 10 -->
      <g transform="translate(232.667727 49.076016)scale(0.1 -0.1)">
       <use xlink:href="#DejaVuSans-31"/>
       <use x="63.623047" xlink:href="#DejaVuSans-30"/>
      </g>
     </g>
    </g>
    <g id="text_13">
     <!-- dr -->
     <defs>
      <path d="M 45.40625 46.390625 
L 45.40625 75.984375 
L 54.390625 75.984375 
L 54.390625 0 
L 45.40625 0 
L 45.40625 8.203125 
Q 42.578125 3.328125 38.25 0.953125 
Q 33.9375 -1.421875 27.875 -1.421875 
Q 17.96875 -1.421875 11.734375 6.484375 
Q 5.515625 14.40625 5.515625 27.296875 
Q 5.515625 40.1875 11.734375 48.09375 
Q 17.96875 56 27.875 56 
Q 33.9375 56 38.25 53.625 
Q 42.578125 51.265625 45.40625 46.390625 
z
M 14.796875 27.296875 
Q 14.796875 17.390625 18.875 11.75 
Q 22.953125 6.109375 30.078125 6.109375 
Q 37.203125 6.109375 41.296875 11.75 
Q 45.40625 17.390625 45.40625 27.296875 
Q 45.40625 37.203125 41.296875 42.84375 
Q 37.203125 48.484375 30.078125 48.484375 
Q 22.953125 48.484375 18.875 42.84375 
Q 14.796875 37.203125 14.796875 27.296875 
z
" id="DejaVuSans-64"/>
      <path d="M 41.109375 46.296875 
Q 39.59375 47.171875 37.8125 47.578125 
Q 36.03125 48 33.890625 48 
Q 26.265625 48 22.1875 43.046875 
Q 18.109375 38.09375 18.109375 28.8125 
L 18.109375 0 
L 9.078125 0 
L 9.078125 54.6875 
L 18.109375 54.6875 
L 18.109375 46.1875 
Q 20.953125 51.171875 25.484375 53.578125 
Q 30.03125 56 36.53125 56 
Q 37.453125 56 38.578125 55.875 
Q 39.703125 55.765625 41.0625 55.515625 
z
" id="DejaVuSans-72"/>
     </defs>
     <g transform="translate(218.208352 179.757688)rotate(-90)scale(0.1 -0.1)">
      <use xlink:href="#DejaVuSans-64"/>
      <use x="63.476562" xlink:href="#DejaVuSans-72"/>
     </g>
    </g>
   </g>
   <g id="line2d_12">
    <path clip-path="url(#p33ec30258e)" d="M 259.77124 146.831814 
L 260.509091 146.807028 
L 260.656661 146.648618 
L 260.804231 146.109983 
L 260.951802 144.83257 
L 261.246942 139.013121 
L 261.837223 123.32232 
L 263.165355 105.181166 
L 263.460496 103.358021 
L 263.755636 100.91785 
L 263.903207 100.450026 
L 264.050777 100.69395 
L 264.493488 102.214937 
L 264.641058 102.261051 
L 264.788628 102.495915 
L 264.936198 103.261686 
L 266.559471 117.689182 
L 267.002182 119.616602 
L 267.592463 123.418432 
L 267.887603 124.572704 
L 268.477884 128.073011 
L 268.625455 127.877216 
L 269.068165 126.484302 
L 269.215736 126.198187 
L 269.363306 125.66199 
L 269.658446 123.255327 
L 270.101157 119.706539 
L 270.396298 118.511817 
L 270.691438 116.151889 
L 271.429289 109.464392 
L 272.01957 103.634474 
L 272.314711 98.681799 
L 272.904992 80.492469 
L 273.347702 71.039475 
L 273.790413 66.554243 
L 273.937983 66.152853 
L 274.085554 66.311161 
L 274.380694 67.086397 
L 274.528264 66.993784 
L 274.970975 65.791775 
L 275.118545 66.214233 
L 275.413686 68.644829 
L 276.151537 74.914744 
L 276.594248 78.613001 
L 276.889388 83.200392 
L 277.479669 93.421031 
L 278.06995 97.890844 
L 278.660231 104.970891 
L 278.955372 107.447568 
L 279.250512 113.031046 
L 280.135934 139.288161 
L 280.726215 155.161652 
L 281.168926 160.529535 
L 281.906777 167.520598 
L 282.201917 170.10303 
L 282.349488 170.417787 
L 282.497058 169.898106 
L 283.087339 164.419482 
L 283.53005 159.348462 
L 283.82519 155.859122 
L 283.97276 155.032835 
L 284.120331 154.88422 
L 284.415471 155.053281 
L 284.858182 154.00006 
L 285.005752 154.590335 
L 285.743603 160.819925 
L 285.891174 160.703529 
L 286.038744 160.814314 
L 286.186314 161.526753 
L 286.776595 166.305052 
L 287.219306 167.652496 
L 287.662017 171.078842 
L 289.137719 184.320659 
L 289.728 198.186601 
L 290.318281 208.431462 
L 291.056132 219.372835 
L 291.646413 225.703 
L 292.236694 237.332571 
L 292.974545 256.128462 
L 293.417256 265.760361 
L 294.007537 272.853266 
L 294.155107 273.639167 
L 294.302678 273.688078 
L 294.745388 271.851659 
L 294.892959 272.392977 
L 295.188099 276.769713 
L 295.92595 291.609791 
L 296.221091 295.002617 
L 296.368661 295.488 
L 296.516231 295.004359 
L 296.811372 291.851868 
L 297.254083 287.075029 
L 298.434645 278.992806 
L 298.729785 278.756501 
L 298.877355 278.6228 
L 299.024926 278.011863 
L 299.320066 274.319082 
L 301.976331 221.08116 
L 302.271471 218.765532 
L 302.566612 213.853265 
L 303.156893 202.480745 
L 304.189884 193.172603 
L 304.485025 186.91241 
L 305.075306 172.163715 
L 305.518017 164.550967 
L 306.108298 151.042614 
L 306.403438 149.316747 
L 306.551008 148.884788 
L 306.846149 146.871286 
L 307.141289 144.943898 
L 307.28886 144.949848 
L 307.584 146.602465 
L 308.174281 151.476576 
L 309.354843 165.397362 
L 309.502413 166.134127 
L 309.649983 166.248432 
L 309.797554 165.681744 
L 310.240264 161.513706 
L 311.273256 150.547709 
L 311.420826 150.354656 
L 311.568397 150.442913 
L 311.715967 150.362042 
L 311.863537 149.699013 
L 312.158678 146.089282 
L 313.044099 132.052553 
L 313.78195 123.434146 
L 314.224661 119.107451 
L 314.667372 111.228375 
L 315.405223 93.009552 
L 316.290645 71.108199 
L 316.733355 62.966337 
L 317.028496 60.709424 
L 317.176066 60.71948 
L 317.766347 62.223587 
L 317.913917 62.214627 
L 318.209058 61.758078 
L 318.799339 60.090184 
L 318.946909 60.320544 
L 319.24205 62.506831 
L 320.275041 75.646621 
L 321.012893 86.996037 
L 321.455603 89.74725 
L 321.750744 94.410471 
L 322.341025 105.231314 
L 322.931306 109.740373 
L 323.669157 118.978792 
L 324.407008 126.132048 
L 324.554579 125.773603 
L 324.997289 123.541003 
L 325.14486 123.527941 
L 325.29243 123.682246 
L 325.44 123.566389 
L 325.58757 122.866335 
L 325.882711 119.608117 
L 326.325421 111.842809 
L 328.096264 73.223889 
L 328.538975 66.553559 
L 329.571967 59.401851 
L 329.719537 59.020693 
L 329.867107 59.447344 
L 330.162248 62.355046 
L 330.604959 69.291768 
L 332.080661 97.191824 
L 332.966083 108.618187 
L 333.408793 117.96435 
L 333.703934 120.56613 
L 334.441785 123.043498 
L 334.589355 122.832965 
L 334.884496 122.127129 
L 335.032066 122.410007 
L 335.622347 125.483717 
L 335.769917 124.762606 
L 337.688331 105.612705 
L 338.131041 98.63681 
L 338.573752 91.598106 
L 339.164033 83.953125 
L 340.197025 64.128538 
L 340.492165 61.106532 
L 340.639736 60.551025 
L 340.787306 60.813014 
L 341.082446 63.144318 
L 341.820298 70.989262 
L 342.705719 83.343009 
L 343.14843 86.958372 
L 343.44357 88.406481 
L 343.738711 91.675122 
L 345.361983 121.104629 
L 345.952264 127.068892 
L 346.542545 142.767304 
L 347.575537 167.871822 
L 347.870678 170.48449 
L 348.165818 171.410352 
L 348.313388 171.398638 
L 348.608529 170.541405 
L 348.903669 169.063573 
L 349.19881 166.45779 
L 349.936661 157.347681 
L 350.084231 157.226423 
L 350.231802 157.366468 
L 350.379372 157.338368 
L 350.674512 156.411687 
L 350.969653 155.659796 
L 351.264793 155.364291 
L 351.707504 154.378392 
L 351.855074 155.033171 
L 352.150215 158.989668 
L 352.740496 167.72329 
L 353.183207 171.445789 
L 353.330777 171.987264 
L 353.478347 172.088229 
L 353.625917 172.001161 
L 353.773488 172.134001 
L 353.921058 172.780954 
L 354.658909 179.252627 
L 354.95405 183.058402 
L 356.429752 207.781636 
L 356.872463 214.567966 
L 357.757884 233.014846 
L 358.200595 237.684038 
L 358.938446 250.771524 
L 360.561719 280.316399 
L 361.152 284.726236 
L 361.29957 284.722206 
L 361.889851 281.07393 
L 362.184992 284.39177 
L 362.480132 287.817742 
L 362.922843 289.739841 
L 363.365554 293.826588 
L 363.513124 293.735616 
L 363.808264 290.510781 
L 364.546116 279.032449 
L 364.988826 268.900872 
L 365.283967 266.950165 
L 365.431537 266.394031 
L 365.726678 263.614838 
L 366.021818 260.793944 
L 366.316959 260.08447 
L 366.464529 259.122303 
L 366.759669 252.936257 
L 367.792661 222.377849 
L 368.235372 213.876049 
L 368.825653 209.253187 
L 369.563504 198.074448 
L 370.301355 187.67987 
L 370.891636 178.98104 
L 371.481917 168.65606 
L 372.072198 156.33578 
L 372.662479 147.857066 
L 372.95762 143.62163 
L 373.10519 143.0653 
L 373.25276 143.50417 
L 373.547901 144.889055 
L 373.843041 144.962886 
L 373.990612 145.46977 
L 374.285752 149.540432 
L 374.728463 157.353437 
L 375.023603 159.358187 
L 376.204165 164.623515 
L 376.351736 164.404269 
L 376.646876 161.827413 
L 377.089587 156.636543 
L 377.384727 154.530396 
L 377.679868 150.028032 
L 378.270149 138.370499 
L 378.71286 135.440903 
L 379.450711 131.134121 
L 379.745851 126.247092 
L 380.336132 113.539159 
L 380.926413 104.303375 
L 382.106975 81.192814 
L 382.549686 73.448725 
L 383.287537 56.736902 
L 383.582678 53.935069 
L 383.730248 53.568 
L 383.877818 54.018013 
L 384.172959 57.378173 
L 384.615669 63.056662 
L 385.353521 66.9814 
L 385.796231 70.14815 
L 386.091372 71.491996 
L 386.386512 73.996621 
L 386.829223 79.884173 
L 387.862215 97.550442 
L 388.157355 101.094361 
L 388.747636 111.029811 
L 389.042777 112.07208 
L 389.190347 112.188125 
L 389.337917 112.64014 
L 389.633058 115.147837 
L 390.518479 125.483019 
L 390.66605 126.095564 
L 390.81362 126.201683 
L 390.96119 125.865557 
L 391.256331 124.07984 
L 392.289322 113.826639 
L 392.584463 108.62363 
L 394.355306 70.077502 
L 394.650446 67.480017 
L 395.240727 60.357288 
L 395.388298 60.00913 
L 395.683438 60.602529 
L 395.978579 61.526534 
L 396.273719 63.871704 
L 397.306711 79.108078 
L 398.192132 97.428361 
L 398.929983 112.150032 
L 399.372694 116.792266 
L 399.667835 117.834879 
L 399.962975 118.351896 
L 400.258116 120.138606 
L 400.848397 124.655286 
L 401.143537 125.690074 
L 401.291107 125.959147 
L 401.438678 125.890493 
L 401.586248 125.324604 
L 402.028959 121.254391 
L 402.61924 116.924536 
L 402.91438 113.964065 
L 403.799802 103.276623 
L 404.242512 100.301376 
L 404.537653 95.143919 
L 405.127934 80.513978 
L 405.423074 77.863934 
L 405.718215 76.014517 
L 406.456066 67.550561 
L 407.046347 61.063162 
L 407.193917 60.417773 
L 407.341488 60.608043 
L 407.341488 60.608043 
" style="fill:none;stroke:#1f77b4;stroke-linecap:square;stroke-width:1.5;"/>
   </g>
   <g id="patch_3">
    <path d="M 252.392727 307.584 
L 252.392727 41.472 
" style="fill:none;stroke:#000000;stroke-linecap:square;stroke-linejoin:miter;stroke-width:0.8;"/>
   </g>
   <g id="patch_4">
    <path d="M 414.72 307.584 
L 414.72 41.472 
" style="fill:none;stroke:#000000;stroke-linecap:square;stroke-linejoin:miter;stroke-width:0.8;"/>
   </g>
   <g id="patch_5">
    <path d="M 252.392727 307.584 
L 414.72 307.584 
" style="fill:none;stroke:#000000;stroke-linecap:square;stroke-linejoin:miter;stroke-width:0.8;"/>
   </g>
   <g id="patch_6">
    <path d="M 252.392727 41.472 
L 414.72 41.472 
" style="fill:none;stroke:#000000;stroke-linecap:square;stroke-linejoin:miter;stroke-width:0.8;"/>
   </g>
   <g id="text_14">
    <!-- Sismograma com ruído -->
    <defs>
     <path d="M 53.515625 70.515625 
L 53.515625 60.890625 
Q 47.90625 63.578125 42.921875 64.890625 
Q 37.9375 66.21875 33.296875 66.21875 
Q 25.25 66.21875 20.875 63.09375 
Q 16.5 59.96875 16.5 54.203125 
Q 16.5 49.359375 19.40625 46.890625 
Q 22.3125 44.4375 30.421875 42.921875 
L 36.375 41.703125 
Q 47.40625 39.59375 52.65625 34.296875 
Q 57.90625 29 57.90625 20.125 
Q 57.90625 9.515625 50.796875 4.046875 
Q 43.703125 -1.421875 29.984375 -1.421875 
Q 24.8125 -1.421875 18.96875 -0.25 
Q 13.140625 0.921875 6.890625 3.21875 
L 6.890625 13.375 
Q 12.890625 10.015625 18.65625 8.296875 
Q 24.421875 6.59375 29.984375 6.59375 
Q 38.421875 6.59375 43.015625 9.90625 
Q 47.609375 13.234375 47.609375 19.390625 
Q 47.609375 24.75 44.3125 27.78125 
Q 41.015625 30.8125 33.5 32.328125 
L 27.484375 33.5 
Q 16.453125 35.6875 11.515625 40.375 
Q 6.59375 45.0625 6.59375 53.421875 
Q 6.59375 63.09375 13.40625 68.65625 
Q 20.21875 74.21875 32.171875 74.21875 
Q 37.3125 74.21875 42.625 73.28125 
Q 47.953125 72.359375 53.515625 70.515625 
z
" id="DejaVuSans-53"/>
     <path d="M 9.421875 54.6875 
L 18.40625 54.6875 
L 18.40625 0 
L 9.421875 0 
z
M 9.421875 75.984375 
L 18.40625 75.984375 
L 18.40625 64.59375 
L 9.421875 64.59375 
z
" id="DejaVuSans-69"/>
     <path d="M 44.28125 53.078125 
L 44.28125 44.578125 
Q 40.484375 46.53125 36.375 47.5 
Q 32.28125 48.484375 27.875 48.484375 
Q 21.1875 48.484375 17.84375 46.4375 
Q 14.5 44.390625 14.5 40.28125 
Q 14.5 37.15625 16.890625 35.375 
Q 19.28125 33.59375 26.515625 31.984375 
L 29.59375 31.296875 
Q 39.15625 29.25 43.1875 25.515625 
Q 47.21875 21.78125 47.21875 15.09375 
Q 47.21875 7.46875 41.1875 3.015625 
Q 35.15625 -1.421875 24.609375 -1.421875 
Q 20.21875 -1.421875 15.453125 -0.5625 
Q 10.6875 0.296875 5.421875 2 
L 5.421875 11.28125 
Q 10.40625 8.6875 15.234375 7.390625 
Q 20.0625 6.109375 24.8125 6.109375 
Q 31.15625 6.109375 34.5625 8.28125 
Q 37.984375 10.453125 37.984375 14.40625 
Q 37.984375 18.0625 35.515625 20.015625 
Q 33.0625 21.96875 24.703125 23.78125 
L 21.578125 24.515625 
Q 13.234375 26.265625 9.515625 29.90625 
Q 5.8125 33.546875 5.8125 39.890625 
Q 5.8125 47.609375 11.28125 51.796875 
Q 16.75 56 26.8125 56 
Q 31.78125 56 36.171875 55.265625 
Q 40.578125 54.546875 44.28125 53.078125 
z
" id="DejaVuSans-73"/>
     <path d="M 52 44.1875 
Q 55.375 50.25 60.0625 53.125 
Q 64.75 56 71.09375 56 
Q 79.640625 56 84.28125 50.015625 
Q 88.921875 44.046875 88.921875 33.015625 
L 88.921875 0 
L 79.890625 0 
L 79.890625 32.71875 
Q 79.890625 40.578125 77.09375 44.375 
Q 74.3125 48.1875 68.609375 48.1875 
Q 61.625 48.1875 57.5625 43.546875 
Q 53.515625 38.921875 53.515625 30.90625 
L 53.515625 0 
L 44.484375 0 
L 44.484375 32.71875 
Q 44.484375 40.625 41.703125 44.40625 
Q 38.921875 48.1875 33.109375 48.1875 
Q 26.21875 48.1875 22.15625 43.53125 
Q 18.109375 38.875 18.109375 30.90625 
L 18.109375 0 
L 9.078125 0 
L 9.078125 54.6875 
L 18.109375 54.6875 
L 18.109375 46.1875 
Q 21.1875 51.21875 25.484375 53.609375 
Q 29.78125 56 35.6875 56 
Q 41.65625 56 45.828125 52.96875 
Q 50 49.953125 52 44.1875 
z
" id="DejaVuSans-6d"/>
     <path d="M 30.609375 48.390625 
Q 23.390625 48.390625 19.1875 42.75 
Q 14.984375 37.109375 14.984375 27.296875 
Q 14.984375 17.484375 19.15625 11.84375 
Q 23.34375 6.203125 30.609375 6.203125 
Q 37.796875 6.203125 41.984375 11.859375 
Q 46.1875 17.53125 46.1875 27.296875 
Q 46.1875 37.015625 41.984375 42.703125 
Q 37.796875 48.390625 30.609375 48.390625 
z
M 30.609375 56 
Q 42.328125 56 49.015625 48.375 
Q 55.71875 40.765625 55.71875 27.296875 
Q 55.71875 13.875 49.015625 6.21875 
Q 42.328125 -1.421875 30.609375 -1.421875 
Q 18.84375 -1.421875 12.171875 6.21875 
Q 5.515625 13.875 5.515625 27.296875 
Q 5.515625 40.765625 12.171875 48.375 
Q 18.84375 56 30.609375 56 
z
" id="DejaVuSans-6f"/>
     <path d="M 45.40625 27.984375 
Q 45.40625 37.75 41.375 43.109375 
Q 37.359375 48.484375 30.078125 48.484375 
Q 22.859375 48.484375 18.828125 43.109375 
Q 14.796875 37.75 14.796875 27.984375 
Q 14.796875 18.265625 18.828125 12.890625 
Q 22.859375 7.515625 30.078125 7.515625 
Q 37.359375 7.515625 41.375 12.890625 
Q 45.40625 18.265625 45.40625 27.984375 
z
M 54.390625 6.78125 
Q 54.390625 -7.171875 48.1875 -13.984375 
Q 42 -20.796875 29.203125 -20.796875 
Q 24.46875 -20.796875 20.265625 -20.09375 
Q 16.0625 -19.390625 12.109375 -17.921875 
L 12.109375 -9.1875 
Q 16.0625 -11.328125 19.921875 -12.34375 
Q 23.78125 -13.375 27.78125 -13.375 
Q 36.625 -13.375 41.015625 -8.765625 
Q 45.40625 -4.15625 45.40625 5.171875 
L 45.40625 9.625 
Q 42.625 4.78125 38.28125 2.390625 
Q 33.9375 0 27.875 0 
Q 17.828125 0 11.671875 7.65625 
Q 5.515625 15.328125 5.515625 27.984375 
Q 5.515625 40.671875 11.671875 48.328125 
Q 17.828125 56 27.875 56 
Q 33.9375 56 38.28125 53.609375 
Q 42.625 51.21875 45.40625 46.390625 
L 45.40625 54.6875 
L 54.390625 54.6875 
z
" id="DejaVuSans-67"/>
     <path d="M 34.28125 27.484375 
Q 23.390625 27.484375 19.1875 25 
Q 14.984375 22.515625 14.984375 16.5 
Q 14.984375 11.71875 18.140625 8.90625 
Q 21.296875 6.109375 26.703125 6.109375 
Q 34.1875 6.109375 38.703125 11.40625 
Q 43.21875 16.703125 43.21875 25.484375 
L 43.21875 27.484375 
z
M 52.203125 31.203125 
L 52.203125 0 
L 43.21875 0 
L 43.21875 8.296875 
Q 40.140625 3.328125 35.546875 0.953125 
Q 30.953125 -1.421875 24.3125 -1.421875 
Q 15.921875 -1.421875 10.953125 3.296875 
Q 6 8.015625 6 15.921875 
Q 6 25.140625 12.171875 29.828125 
Q 18.359375 34.515625 30.609375 34.515625 
L 43.21875 34.515625 
L 43.21875 35.40625 
Q 43.21875 41.609375 39.140625 45 
Q 35.0625 48.390625 27.6875 48.390625 
Q 23 48.390625 18.546875 47.265625 
Q 14.109375 46.140625 10.015625 43.890625 
L 10.015625 52.203125 
Q 14.9375 54.109375 19.578125 55.046875 
Q 24.21875 56 28.609375 56 
Q 40.484375 56 46.34375 49.84375 
Q 52.203125 43.703125 52.203125 31.203125 
z
" id="DejaVuSans-61"/>
     <path id="DejaVuSans-20"/>
     <path d="M 48.78125 52.59375 
L 48.78125 44.1875 
Q 44.96875 46.296875 41.140625 47.34375 
Q 37.3125 48.390625 33.40625 48.390625 
Q 24.65625 48.390625 19.8125 42.84375 
Q 14.984375 37.3125 14.984375 27.296875 
Q 14.984375 17.28125 19.8125 11.734375 
Q 24.65625 6.203125 33.40625 6.203125 
Q 37.3125 6.203125 41.140625 7.25 
Q 44.96875 8.296875 48.78125 10.40625 
L 48.78125 2.09375 
Q 45.015625 0.34375 40.984375 -0.53125 
Q 36.96875 -1.421875 32.421875 -1.421875 
Q 20.0625 -1.421875 12.78125 6.34375 
Q 5.515625 14.109375 5.515625 27.296875 
Q 5.515625 40.671875 12.859375 48.328125 
Q 20.21875 56 33.015625 56 
Q 37.15625 56 41.109375 55.140625 
Q 45.0625 54.296875 48.78125 52.59375 
z
" id="DejaVuSans-63"/>
     <path d="M 8.5 21.578125 
L 8.5 54.6875 
L 17.484375 54.6875 
L 17.484375 21.921875 
Q 17.484375 14.15625 20.5 10.265625 
Q 23.53125 6.390625 29.59375 6.390625 
Q 36.859375 6.390625 41.078125 11.03125 
Q 45.3125 15.671875 45.3125 23.6875 
L 45.3125 54.6875 
L 54.296875 54.6875 
L 54.296875 0 
L 45.3125 0 
L 45.3125 8.40625 
Q 42.046875 3.421875 37.71875 1 
Q 33.40625 -1.421875 27.6875 -1.421875 
Q 18.265625 -1.421875 13.375 4.4375 
Q 8.5 10.296875 8.5 21.578125 
z
M 31.109375 56 
z
" id="DejaVuSans-75"/>
     <path d="M 20.65625 79.984375 
L 30.375 79.984375 
L 14.46875 61.625 
L 6.984375 61.625 
z
M 9.421875 54.6875 
L 18.40625 54.6875 
L 18.40625 0 
L 9.421875 0 
z
M 13.921875 56 
z
" id="DejaVuSans-ed"/>
    </defs>
    <g transform="translate(263.920739 35.472)scale(0.12 -0.12)">
     <use xlink:href="#DejaVuSans-53"/>
     <use x="63.476562" xlink:href="#DejaVuSans-69"/>
     <use x="91.259766" xlink:href="#DejaVuSans-73"/>
     <use x="143.359375" xlink:href="#DejaVuSans-6d"/>
     <use x="240.771484" xlink:href="#DejaVuSans-6f"/>
     <use x="301.953125" xlink:href="#DejaVuSans-67"/>
     <use x="365.429688" xlink:href="#DejaVuSans-72"/>
     <use x="406.542969" xlink:href="#DejaVuSans-61"/>
     <use x="467.822266" xlink:href="#DejaVuSans-6d"/>
     <use x="565.234375" xlink:href="#DejaVuSans-61"/>
     <use x="626.513672" xlink:href="#DejaVuSans-20"/>
     <use x="658.300781" xlink:href="#DejaVuSans-63"/>
     <use x="713.28125" xlink:href="#DejaVuSans-6f"/>
     <use x="774.462891" xlink:href="#DejaVuSans-6d"/>
     <use x="871.875" xlink:href="#DejaVuSans-20"/>
     <use x="903.662109" xlink:href="#DejaVuSans-72"/>
     <use x="944.775391" xlink:href="#DejaVuSans-75"/>
     <use x="1008.154297" xlink:href="#DejaVuSans-ed"/>
     <use x="1035.9375" xlink:href="#DejaVuSans-64"/>
     <use x="1099.414062" xlink:href="#DejaVuSans-6f"/>
    </g>
   </g>
  </g>
  <g id="axes_2">
   <g id="patch_7">
    <path d="M 57.6 307.584 
L 219.927273 307.584 
L 219.927273 41.472 
L 57.6 41.472 
z
" style="fill:#ffffff;"/>
   </g>
   <g id="matplotlib.axis_3">
    <g id="xtick_6">
     <g id="line2d_13">
      <g>
       <use style="stroke:#000000;stroke-width:0.8;" x="64.978512" xlink:href="#m17f0c7cf55" y="307.584"/>
      </g>
     </g>
     <g id="text_15">
      <!-- 0.00 -->
      <g transform="translate(53.8457 322.182437)scale(0.1 -0.1)">
       <use xlink:href="#DejaVuSans-30"/>
       <use x="63.623047" xlink:href="#DejaVuSans-2e"/>
       <use x="95.410156" xlink:href="#DejaVuSans-30"/>
       <use x="159.033203" xlink:href="#DejaVuSans-30"/>
      </g>
     </g>
    </g>
    <g id="xtick_7">
     <g id="line2d_14">
      <g>
       <use style="stroke:#000000;stroke-width:0.8;" x="101.871074" xlink:href="#m17f0c7cf55" y="307.584"/>
      </g>
     </g>
     <g id="text_16">
      <!-- 0.25 -->
      <g transform="translate(90.738262 322.182437)scale(0.1 -0.1)">
       <use xlink:href="#DejaVuSans-30"/>
       <use x="63.623047" xlink:href="#DejaVuSans-2e"/>
       <use x="95.410156" xlink:href="#DejaVuSans-32"/>
       <use x="159.033203" xlink:href="#DejaVuSans-35"/>
      </g>
     </g>
    </g>
    <g id="xtick_8">
     <g id="line2d_15">
      <g>
       <use style="stroke:#000000;stroke-width:0.8;" x="138.763636" xlink:href="#m17f0c7cf55" y="307.584"/>
      </g>
     </g>
     <g id="text_17">
      <!-- 0.50 -->
      <g transform="translate(127.630824 322.182437)scale(0.1 -0.1)">
       <use xlink:href="#DejaVuSans-30"/>
       <use x="63.623047" xlink:href="#DejaVuSans-2e"/>
       <use x="95.410156" xlink:href="#DejaVuSans-35"/>
       <use x="159.033203" xlink:href="#DejaVuSans-30"/>
      </g>
     </g>
    </g>
    <g id="xtick_9">
     <g id="line2d_16">
      <g>
       <use style="stroke:#000000;stroke-width:0.8;" x="175.656198" xlink:href="#m17f0c7cf55" y="307.584"/>
      </g>
     </g>
     <g id="text_18">
      <!-- 0.75 -->
      <g transform="translate(164.523386 322.182437)scale(0.1 -0.1)">
       <use xlink:href="#DejaVuSans-30"/>
       <use x="63.623047" xlink:href="#DejaVuSans-2e"/>
       <use x="95.410156" xlink:href="#DejaVuSans-37"/>
       <use x="159.033203" xlink:href="#DejaVuSans-35"/>
      </g>
     </g>
    </g>
    <g id="xtick_10">
     <g id="line2d_17">
      <g>
       <use style="stroke:#000000;stroke-width:0.8;" x="212.54876" xlink:href="#m17f0c7cf55" y="307.584"/>
      </g>
     </g>
     <g id="text_19">
      <!-- 1.00 -->
      <g transform="translate(201.415948 322.182437)scale(0.1 -0.1)">
       <use xlink:href="#DejaVuSans-31"/>
       <use x="63.623047" xlink:href="#DejaVuSans-2e"/>
       <use x="95.410156" xlink:href="#DejaVuSans-30"/>
       <use x="159.033203" xlink:href="#DejaVuSans-30"/>
      </g>
     </g>
    </g>
    <g id="text_20">
     <!-- t -->
     <g transform="translate(136.80348 335.860562)scale(0.1 -0.1)">
      <use xlink:href="#DejaVuSans-74"/>
     </g>
    </g>
   </g>
   <g id="matplotlib.axis_4">
    <g id="ytick_7">
     <g id="line2d_18">
      <g>
       <use style="stroke:#000000;stroke-width:0.8;" x="57.6" xlink:href="#mfed6d79fc1" y="299.153243"/>
      </g>
     </g>
     <g id="text_21">
      <!-- −15 -->
      <g transform="translate(29.495313 302.952461)scale(0.1 -0.1)">
       <use xlink:href="#DejaVuSans-2212"/>
       <use x="83.789062" xlink:href="#DejaVuSans-31"/>
       <use x="147.412109" xlink:href="#DejaVuSans-35"/>
      </g>
     </g>
    </g>
    <g id="ytick_8">
     <g id="line2d_19">
      <g>
       <use style="stroke:#000000;stroke-width:0.8;" x="57.6" xlink:href="#mfed6d79fc1" y="248.376922"/>
      </g>
     </g>
     <g id="text_22">
      <!-- −10 -->
      <g transform="translate(29.495313 252.176141)scale(0.1 -0.1)">
       <use xlink:href="#DejaVuSans-2212"/>
       <use x="83.789062" xlink:href="#DejaVuSans-31"/>
       <use x="147.412109" xlink:href="#DejaVuSans-30"/>
      </g>
     </g>
    </g>
    <g id="ytick_9">
     <g id="line2d_20">
      <g>
       <use style="stroke:#000000;stroke-width:0.8;" x="57.6" xlink:href="#mfed6d79fc1" y="197.600601"/>
      </g>
     </g>
     <g id="text_23">
      <!-- −5 -->
      <g transform="translate(35.857813 201.39982)scale(0.1 -0.1)">
       <use xlink:href="#DejaVuSans-2212"/>
       <use x="83.789062" xlink:href="#DejaVuSans-35"/>
      </g>
     </g>
    </g>
    <g id="ytick_10">
     <g id="line2d_21">
      <g>
       <use style="stroke:#000000;stroke-width:0.8;" x="57.6" xlink:href="#mfed6d79fc1" y="146.82428"/>
      </g>
     </g>
     <g id="text_24">
      <!-- 0 -->
      <g transform="translate(44.2375 150.623499)scale(0.1 -0.1)">
       <use xlink:href="#DejaVuSans-30"/>
      </g>
     </g>
    </g>
    <g id="ytick_11">
     <g id="line2d_22">
      <g>
       <use style="stroke:#000000;stroke-width:0.8;" x="57.6" xlink:href="#mfed6d79fc1" y="96.047959"/>
      </g>
     </g>
     <g id="text_25">
      <!-- 5 -->
      <g transform="translate(44.2375 99.847178)scale(0.1 -0.1)">
       <use xlink:href="#DejaVuSans-35"/>
      </g>
     </g>
    </g>
    <g id="ytick_12">
     <g id="line2d_23">
      <g>
       <use style="stroke:#000000;stroke-width:0.8;" x="57.6" xlink:href="#mfed6d79fc1" y="45.271638"/>
      </g>
     </g>
     <g id="text_26">
      <!-- 10 -->
      <g transform="translate(37.875 49.070857)scale(0.1 -0.1)">
       <use xlink:href="#DejaVuSans-31"/>
       <use x="63.623047" xlink:href="#DejaVuSans-30"/>
      </g>
     </g>
    </g>
    <g id="text_27">
     <!-- dr -->
     <g transform="translate(23.415625 179.757688)rotate(-90)scale(0.1 -0.1)">
      <use xlink:href="#DejaVuSans-64"/>
      <use x="63.476562" xlink:href="#DejaVuSans-72"/>
     </g>
    </g>
   </g>
   <g id="line2d_24">
    <path clip-path="url(#p0d2129c5c6)" d="M 64.978512 146.82428 
L 65.716364 146.799494 
L 65.863934 146.64108 
L 66.011504 146.102505 
L 66.159074 144.8252 
L 66.454215 139.005195 
L 67.044496 123.316616 
L 68.372628 105.176694 
L 68.667769 103.353616 
L 68.962909 100.914538 
L 69.110479 100.43989 
L 69.25805 100.687245 
L 69.70076 102.20758 
L 69.848331 102.257979 
L 69.995901 102.488693 
L 70.291041 104.609517 
L 70.733752 108.7772 
L 71.176463 111.904752 
L 71.766744 117.680759 
L 72.209455 119.611396 
L 72.799736 123.412072 
L 73.094876 124.56639 
L 73.685157 128.06611 
L 73.832727 127.870618 
L 74.275438 126.477197 
L 74.423008 126.189811 
L 74.570579 125.656086 
L 74.865719 123.247588 
L 75.30843 119.698951 
L 75.60357 118.506977 
L 75.898711 116.146244 
L 76.636562 109.455073 
L 77.226843 103.629077 
L 77.521983 98.676104 
L 78.112264 80.488047 
L 78.554975 71.031643 
L 78.997686 66.547117 
L 79.145256 66.14261 
L 79.292826 66.311639 
L 79.587967 67.080092 
L 79.735537 66.987467 
L 80.178248 65.782337 
L 80.325818 66.213443 
L 80.620959 68.634313 
L 81.35881 74.905653 
L 81.801521 78.610532 
L 82.096661 83.195187 
L 82.686942 93.419499 
L 83.277223 97.881694 
L 83.867504 104.966226 
L 84.162645 107.439402 
L 84.457785 113.022781 
L 85.343207 139.28059 
L 85.933488 155.153857 
L 86.376198 160.520567 
L 87.11405 167.510863 
L 87.40919 170.093028 
L 87.55676 170.408458 
L 87.704331 169.890626 
L 88.294612 164.410974 
L 88.737322 159.341026 
L 89.032463 155.850835 
L 89.180033 155.024913 
L 89.327603 154.875858 
L 89.622744 155.046002 
L 90.065455 153.992844 
L 90.213025 154.583117 
L 90.950876 160.810874 
L 91.098446 160.696856 
L 91.246017 160.805847 
L 91.393587 161.518457 
L 91.983868 166.297865 
L 92.426579 167.642953 
L 92.869289 171.071682 
L 94.344992 184.314007 
L 94.935273 198.182217 
L 95.525554 208.422335 
L 96.263405 219.368899 
L 96.853686 225.693785 
L 97.443967 237.326168 
L 98.181818 256.123498 
L 98.624529 265.751028 
L 99.21481 272.837941 
L 99.36238 273.632255 
L 99.50995 273.683762 
L 99.952661 271.848333 
L 100.100231 272.375665 
L 100.395372 276.752301 
L 101.133223 291.594777 
L 101.428364 294.984804 
L 101.575934 295.488 
L 101.723504 295.004062 
L 102.018645 291.843844 
L 102.461355 287.061359 
L 103.641917 278.993294 
L 103.937058 278.749114 
L 104.084628 278.61292 
L 104.232198 278.005647 
L 104.527339 274.309349 
L 107.183603 221.071355 
L 107.478744 218.750911 
L 107.773884 213.847821 
L 108.364165 202.470467 
L 109.397157 193.166735 
L 109.692298 186.903871 
L 110.282579 172.154042 
L 110.725289 164.544208 
L 111.31557 151.034871 
L 111.610711 149.308999 
L 111.758281 148.877232 
L 112.053421 146.863749 
L 112.348562 144.936421 
L 112.496132 144.942427 
L 112.791273 146.594953 
L 113.381554 151.469168 
L 114.562116 165.390608 
L 114.709686 166.124839 
L 114.857256 166.241155 
L 115.004826 165.673829 
L 115.447537 161.506031 
L 116.480529 150.540061 
L 116.628099 150.346903 
L 116.775669 150.435213 
L 116.92324 150.354558 
L 117.07081 149.691574 
L 117.36595 146.081777 
L 118.251372 132.045126 
L 118.989223 123.426523 
L 119.431934 119.098515 
L 119.874645 111.218726 
L 120.612496 93.003177 
L 121.497917 71.106825 
L 121.940628 62.953995 
L 122.235769 60.707143 
L 122.383339 60.707495 
L 122.97362 62.211913 
L 123.12119 62.205853 
L 123.416331 61.756211 
L 124.006612 60.084628 
L 124.154182 60.32053 
L 124.449322 62.498108 
L 125.482314 75.647006 
L 126.220165 86.99401 
L 126.662876 89.742754 
L 126.958017 94.406154 
L 127.548298 105.223633 
L 128.138579 109.733302 
L 128.87643 118.97346 
L 129.614281 126.124485 
L 129.761851 125.766505 
L 130.204562 123.535961 
L 130.352132 123.52159 
L 130.499702 123.674188 
L 130.647273 123.56034 
L 130.794843 122.857878 
L 131.089983 119.599021 
L 131.532694 111.835936 
L 133.303537 73.219255 
L 133.746248 66.548637 
L 134.77924 59.400558 
L 134.92681 59.014777 
L 135.07438 59.43466 
L 135.369521 62.349658 
L 135.812231 69.288418 
L 137.287934 97.184895 
L 138.173355 108.613209 
L 138.763636 119.657182 
L 139.058777 121.084144 
L 139.649058 123.037776 
L 139.796628 122.826769 
L 140.091769 122.1221 
L 140.239339 122.402364 
L 140.82962 125.478055 
L 140.97719 124.756916 
L 142.895603 105.606536 
L 143.338314 98.629515 
L 143.928595 89.947955 
L 144.371306 83.944504 
L 145.404298 64.128065 
L 145.699438 61.102449 
L 145.847008 60.544347 
L 145.994579 60.804441 
L 146.289719 63.137872 
L 147.02757 70.982394 
L 147.912992 83.331337 
L 148.355702 86.952385 
L 148.650843 88.398816 
L 148.945983 91.665132 
L 150.569256 121.098 
L 151.159537 127.063504 
L 151.749818 142.760018 
L 152.78281 167.862437 
L 153.07795 170.477719 
L 153.373091 171.403114 
L 153.520661 171.390156 
L 153.815802 170.532287 
L 154.110942 169.054452 
L 154.406083 166.449814 
L 155.143934 157.339852 
L 155.291504 157.219522 
L 155.439074 157.357915 
L 155.586645 157.331324 
L 155.881785 156.404618 
L 156.176926 155.652303 
L 156.472066 155.356164 
L 156.914777 154.370068 
L 157.062347 155.025854 
L 157.357488 158.982413 
L 157.947769 167.717113 
L 158.390479 171.438037 
L 158.53805 171.980261 
L 158.68562 172.078807 
L 158.83319 171.993109 
L 158.98076 172.125203 
L 159.128331 172.774835 
L 159.866182 179.242927 
L 160.161322 183.051363 
L 161.637025 207.768929 
L 162.079736 214.555773 
L 162.965157 233.003695 
L 163.407868 237.673457 
L 163.998149 247.910834 
L 165.768992 280.312178 
L 166.359273 284.720736 
L 166.506843 284.700263 
L 167.097124 281.052006 
L 167.392264 284.381931 
L 167.687405 287.815756 
L 168.130116 289.73064 
L 168.572826 293.824295 
L 168.720397 293.725397 
L 169.015537 290.503587 
L 169.753388 279.01018 
L 170.196099 268.881629 
L 170.49124 266.940308 
L 170.63881 266.393198 
L 170.93395 263.606809 
L 171.229091 260.780139 
L 171.524231 260.080301 
L 171.671802 259.113202 
L 171.966942 252.916784 
L 172.999934 222.36711 
L 173.442645 213.863971 
L 174.032926 209.239664 
L 174.770777 198.067299 
L 175.508628 187.673461 
L 176.098909 178.971041 
L 176.68919 168.648776 
L 177.279471 156.328337 
L 177.869752 147.849497 
L 178.164893 143.614149 
L 178.312463 143.057886 
L 178.460033 143.496913 
L 178.755174 144.881491 
L 179.050314 144.955447 
L 179.197884 145.462156 
L 179.493025 149.533001 
L 179.935736 157.34534 
L 180.230876 159.350182 
L 181.411438 164.614963 
L 181.559008 164.397396 
L 181.854149 161.819394 
L 182.29686 156.628788 
L 182.592 154.521982 
L 182.88714 150.020292 
L 183.477421 138.363611 
L 183.920132 135.433237 
L 184.657983 131.127389 
L 184.953124 126.239473 
L 185.543405 113.535164 
L 186.133686 104.295515 
L 187.314248 81.183907 
L 187.756959 73.436823 
L 188.49481 56.726729 
L 188.78995 53.932278 
L 188.937521 53.568 
L 189.085091 54.020907 
L 189.380231 57.372307 
L 189.822942 63.055592 
L 190.560793 66.978773 
L 191.003504 70.13837 
L 191.298645 71.480969 
L 191.593785 73.994846 
L 192.036496 79.874387 
L 193.069488 97.542651 
L 193.364628 101.091825 
L 193.954909 111.021671 
L 194.25005 112.067574 
L 194.39762 112.179836 
L 194.54519 112.630564 
L 194.840331 115.139355 
L 195.725752 125.476729 
L 195.873322 126.087942 
L 196.020893 126.195544 
L 196.168463 125.856999 
L 196.463603 124.071753 
L 197.496595 113.821638 
L 197.791736 108.616917 
L 199.562579 70.074376 
L 199.857719 67.467826 
L 200.448 60.348931 
L 200.59557 60.00556 
L 200.74314 60.20789 
L 201.185851 61.521972 
L 201.480992 63.862036 
L 202.513983 79.108035 
L 203.399405 97.419234 
L 204.137256 112.140933 
L 204.579967 116.784348 
L 204.875107 117.826142 
L 205.170248 118.343855 
L 205.465388 120.130255 
L 206.055669 124.648606 
L 206.35081 125.683974 
L 206.49838 125.951287 
L 206.64595 125.882928 
L 206.793521 125.316444 
L 207.236231 121.247992 
L 207.826512 116.917085 
L 208.121653 113.957751 
L 209.007074 103.273383 
L 209.449785 100.295122 
L 209.744926 95.133296 
L 210.335207 80.503365 
L 210.630347 77.852231 
L 210.925488 76.005738 
L 211.663339 67.544123 
L 212.25362 61.062128 
L 212.40119 60.418766 
L 212.54876 60.605421 
L 212.54876 60.605421 
" style="fill:none;stroke:#1f77b4;stroke-linecap:square;stroke-width:1.5;"/>
   </g>
   <g id="patch_8">
    <path d="M 57.6 307.584 
L 57.6 41.472 
" style="fill:none;stroke:#000000;stroke-linecap:square;stroke-linejoin:miter;stroke-width:0.8;"/>
   </g>
   <g id="patch_9">
    <path d="M 219.927273 307.584 
L 219.927273 41.472 
" style="fill:none;stroke:#000000;stroke-linecap:square;stroke-linejoin:miter;stroke-width:0.8;"/>
   </g>
   <g id="patch_10">
    <path d="M 57.6 307.584 
L 219.927273 307.584 
" style="fill:none;stroke:#000000;stroke-linecap:square;stroke-linejoin:miter;stroke-width:0.8;"/>
   </g>
   <g id="patch_11">
    <path d="M 57.6 41.472 
L 219.927273 41.472 
" style="fill:none;stroke:#000000;stroke-linecap:square;stroke-linejoin:miter;stroke-width:0.8;"/>
   </g>
   <g id="text_28">
    <!-- Sismograma sem ruído -->
    <defs>
     <path d="M 56.203125 29.59375 
L 56.203125 25.203125 
L 14.890625 25.203125 
Q 15.484375 15.921875 20.484375 11.0625 
Q 25.484375 6.203125 34.421875 6.203125 
Q 39.59375 6.203125 44.453125 7.46875 
Q 49.3125 8.734375 54.109375 11.28125 
L 54.109375 2.78125 
Q 49.265625 0.734375 44.1875 -0.34375 
Q 39.109375 -1.421875 33.890625 -1.421875 
Q 20.796875 -1.421875 13.15625 6.1875 
Q 5.515625 13.8125 5.515625 26.8125 
Q 5.515625 40.234375 12.765625 48.109375 
Q 20.015625 56 32.328125 56 
Q 43.359375 56 49.78125 48.890625 
Q 56.203125 41.796875 56.203125 29.59375 
z
M 47.21875 32.234375 
Q 47.125 39.59375 43.09375 43.984375 
Q 39.0625 48.390625 32.421875 48.390625 
Q 24.90625 48.390625 20.390625 44.140625 
Q 15.875 39.890625 15.1875 32.171875 
z
" id="DejaVuSans-65"/>
    </defs>
    <g transform="translate(69.280824 35.472)scale(0.12 -0.12)">
     <use xlink:href="#DejaVuSans-53"/>
     <use x="63.476562" xlink:href="#DejaVuSans-69"/>
     <use x="91.259766" xlink:href="#DejaVuSans-73"/>
     <use x="143.359375" xlink:href="#DejaVuSans-6d"/>
     <use x="240.771484" xlink:href="#DejaVuSans-6f"/>
     <use x="301.953125" xlink:href="#DejaVuSans-67"/>
     <use x="365.429688" xlink:href="#DejaVuSans-72"/>
     <use x="406.542969" xlink:href="#DejaVuSans-61"/>
     <use x="467.822266" xlink:href="#DejaVuSans-6d"/>
     <use x="565.234375" xlink:href="#DejaVuSans-61"/>
     <use x="626.513672" xlink:href="#DejaVuSans-20"/>
     <use x="658.300781" xlink:href="#DejaVuSans-73"/>
     <use x="710.400391" xlink:href="#DejaVuSans-65"/>
     <use x="771.923828" xlink:href="#DejaVuSans-6d"/>
     <use x="869.335938" xlink:href="#DejaVuSans-20"/>
     <use x="901.123047" xlink:href="#DejaVuSans-72"/>
     <use x="942.236328" xlink:href="#DejaVuSans-75"/>
     <use x="1005.615234" xlink:href="#DejaVuSans-ed"/>
     <use x="1033.398438" xlink:href="#DejaVuSans-64"/>
     <use x="1096.875" xlink:href="#DejaVuSans-6f"/>
    </g>
   </g>
  </g>
 </g>
 <defs>
  <clipPath id="p33ec30258e">
   <rect height="266.112" width="162.327273" x="252.392727" y="41.472"/>
  </clipPath>
  <clipPath id="p0d2129c5c6">
   <rect height="266.112" width="162.327273" x="57.6" y="41.472"/>
  </clipPath>
 </defs>
</svg>
